<?xml version="1.0" encoding="UTF-8" standalone="no"?>
<svg
   xmlns:dc="http://purl.org/dc/elements/1.1/"
   xmlns:cc="http://creativecommons.org/ns#"
   xmlns:rdf="http://www.w3.org/1999/02/22-rdf-syntax-ns#"
   xmlns:svg="http://www.w3.org/2000/svg"
   xmlns="http://www.w3.org/2000/svg"
   xmlns:sodipodi="http://sodipodi.sourceforge.net/DTD/sodipodi-0.dtd"
   xmlns:inkscape="http://www.inkscape.org/namespaces/inkscape"
   width="48"
   height="48"
   version="1.1"
   viewBox="0 0 12.7 12.7"
   id="svg51"
   sodipodi:docname="header-icon.svg"
   inkscape:version="0.92.4 (5da689c313, 2019-01-14)">
  <metadata
     id="metadata55">
    <rdf:RDF>
      <cc:Work
         rdf:about="">
        <dc:format>image/svg+xml</dc:format>
        <dc:type
           rdf:resource="http://purl.org/dc/dcmitype/StillImage" />
      </cc:Work>
    </rdf:RDF>
  </metadata>
  <sodipodi:namedview
     pagecolor="#ffffff"
     bordercolor="#666666"
     borderopacity="1"
     objecttolerance="10"
     gridtolerance="10"
     guidetolerance="10"
     inkscape:pageopacity="0"
     inkscape:pageshadow="2"
     inkscape:window-width="2532"
     inkscape:window-height="1352"
     id="namedview53"
     showgrid="true"
     inkscape:zoom="9.8333333"
     inkscape:cx="45.568841"
     inkscape:cy="-2.861038"
     inkscape:window-x="14"
     inkscape:window-y="74"
     inkscape:window-maximized="0"
     inkscape:current-layer="svg51"
     inkscape:snap-intersection-paths="true"
     inkscape:snap-global="false"
     inkscape:snap-bbox="true"
     inkscape:bbox-paths="true"
     inkscape:bbox-nodes="true">
    <inkscape:grid
       type="xygrid"
       id="grid888" />
  </sodipodi:namedview>
  <defs
     id="defs7">
    <linearGradient
       id="a"
       x1="48.979"
       x2="48.979"
       y1="92.935"
       y2="105.64"
       gradientUnits="userSpaceOnUse"
       gradientTransform="translate(-42.629,-92.94)">
      <stop
         stop-color="#716ffb"
         offset="0"
         id="stop2" />
      <stop
         stop-color="#6c6af2"
         offset="1"
         id="stop4" />
    </linearGradient>
  </defs>
  <rect
     x="1.6174316e-06"
     y="-0.0050024414"
     width="12.7"
     height="12.7"
     rx="0"
     style="fill:#ef8f71;fill-rule:evenodd;paint-order:stroke fill markers;fill-opacity:1"
     id="rect9" />
  <g
     style="stroke-width:1.64859998"
     id="g47"
     transform="matrix(0.42504,-0.43283,0.42504,0.43283,-76.871962,19.793972)">
    <path
       style="fill:#ffffff"
       inkscape:connector-curvature="0"
       id="path27"
       d="m 122.93,95.879 1.6918,1.6903 c 4.1191,-2.5622 3.7646,-5.4518 3.7646,-5.4518 0,0 -2.9263,-0.31977 -5.4564,3.7615" />
    <path
       style="fill:none;stroke:#231f20;stroke-width:0.43619001;stroke-linecap:round;stroke-linejoin:round;stroke-miterlimit:10"
       inkscape:connector-curvature="0"
       id="path29"
       stroke-miterlimit="10"
       d="m 122.93,95.879 1.6918,1.6903 c 4.1191,-2.5622 3.7646,-5.4518 3.7646,-5.4518 0,0 -2.9263,-0.31977 -5.4564,3.7615 z" />
    <path
       style="fill:#d1d3d4"
       inkscape:connector-curvature="0"
       id="path31"
       d="m 122.93,95.879 -0.86876,-0.86805 1.9651,-0.64849 z" />
    <path
       style="fill:none;stroke:#231f20;stroke-width:0.43619001;stroke-linecap:round;stroke-linejoin:round;stroke-miterlimit:10"
       inkscape:connector-curvature="0"
       id="path33"
       stroke-miterlimit="10"
       d="m 122.93,95.879 -0.86876,-0.86805 1.9651,-0.64849 z" />
    <path
       style="fill:#d1d3d4"
       inkscape:connector-curvature="0"
       id="path35"
       d="m 124.62,97.569 0.86876,0.86818 0.64902,-1.9635 z" />
    <path
       style="fill:none;stroke:#231f20;stroke-width:0.43619001;stroke-linecap:round;stroke-linejoin:round;stroke-miterlimit:10"
       inkscape:connector-curvature="0"
       id="path37"
       stroke-miterlimit="10"
       d="m 124.62,97.569 0.86876,0.86818 0.64902,-1.9635 z" />
    <path
       style="fill:#d1d3d4"
       inkscape:connector-curvature="0"
       id="path39"
       d="m 126.47,94.904 c -0.24619,0.24585 -0.64544,0.24585 -0.89177,0 -0.24605,-0.24612 -0.24605,-0.64505 0,-0.89103 0.24633,-0.24599 0.64558,-0.24599 0.89177,0 0.24619,0.24599 0.24619,0.64491 0,0.89103" />
    <path
       style="fill:none;stroke:#231f20;stroke-width:0.43619001;stroke-linecap:round;stroke-linejoin:round;stroke-miterlimit:10"
       inkscape:connector-curvature="0"
       id="path41"
       stroke-miterlimit="10"
       d="m 126.47,94.904 c -0.24619,0.24585 -0.64544,0.24585 -0.89177,0 -0.24605,-0.24612 -0.24605,-0.64505 0,-0.89103 0.24633,-0.24599 0.64558,-0.24599 0.89177,0 0.24619,0.24599 0.24619,0.64491 0,0.89103 z" />
    <path
       style="fill:#d1d3d4"
       inkscape:connector-curvature="0"
       id="path43"
       d="m 123.3,98.205 c -0.29041,0.29004 -1.9661,0.91375 -1.9661,0.91375 0,0 0.62394,-1.6744 0.91449,-1.9646 0.29042,-0.29004 0.76117,-0.29004 1.0516,0 0.29041,0.29017 0.29041,0.76068 0,1.0508" />
    <path
       style="fill:none;stroke:#231f20;stroke-width:0.43619001;stroke-linecap:round;stroke-linejoin:round;stroke-miterlimit:10"
       inkscape:connector-curvature="0"
       id="path45"
       stroke-miterlimit="10"
       d="m 123.3,98.205 c -0.29041,0.29004 -1.9661,0.91375 -1.9661,0.91375 0,0 0.62394,-1.6744 0.91449,-1.9646 0.29042,-0.29004 0.76117,-0.29004 1.0516,0 0.29041,0.29017 0.29041,0.76068 0,1.0508 z" />
  </g>
  <g
     id="g24"
     transform="matrix(0.01513182,0,0,-0.01513182,6.8346414,5.3014949)"
     style="fill:#f9f9f9;stroke-width:23.31363487" />
  <g
     id="g28"
     transform="matrix(0.01513182,0,0,-0.01513182,8.113365,6.1781283)"
     style="fill:#f9f9f9;stroke-width:23.31363487" />
  <g
     id="g32"
     transform="matrix(0.01513182,0,0,-0.01513182,10.84524,6.8926877)"
     style="fill:#f9f9f9;stroke-width:23.31363487" />
</svg>
